<?xml version="1.0" encoding="utf-8"?>
<!-- Generator: Adobe Illustrator 16.0.0, SVG Export Plug-In . SVG Version: 6.00 Build 0)  -->
<!DOCTYPE svg PUBLIC "-//W3C//DTD SVG 1.1//EN" "http://www.w3.org/Graphics/SVG/1.1/DTD/svg11.dtd">
<svg version="1.1" id="Layer_1" xmlns="http://www.w3.org/2000/svg" xmlns:xlink="http://www.w3.org/1999/xlink" x="0px" y="0px"
	 width="612px" height="500px" viewBox="0 146 612 500" enable-background="new 0 146 612 500" xml:space="preserve">
<g>
	<path fill="none" d="M295.975,338.696c0,30.987,0,61.975,0,92.734C295.975,400.443,295.975,369.684,295.975,338.696
		c0-31.671,0-63.342,0-95.013C295.975,275.354,295.975,307.025,295.975,338.696z"/>
	<path fill="none" d="M427.671,528.722c1.595-1.367,2.278-2.734,2.278-4.329v-14.582l-16.86,1.367v20.278l9.569-0.456
		C424.481,530.544,426.076,529.86,427.671,528.722z"/>
	<path fill="none" d="M430.177,549.228c-1.366-1.139-3.189-1.595-5.24-1.595l-12.076,0.456v20.278l9.798-0.228
		c6.38-0.229,9.798-2.279,9.798-6.152v-8.658C432.456,551.734,431.772,550.367,430.177,549.228z"/>
	<path fill="none" d="M348.607,338.696c0,32.126,0,64.48,0,96.607C348.836,403.177,348.607,371.051,348.607,338.696
		c0-33.949,0-68.127,0-102.076C348.607,270.569,348.607,304.747,348.607,338.696z"/>
	<polygon fill="none" points="486.684,567 506.051,566.544 506.051,503.658 486.684,505.025 	"/>
	<path d="M366.607,204.038c-75.417,10.481-150.835,20.734-226.253,31.215c-38.734,5.241-77.468,10.709-116.203,15.95
		c-4.785,0.684-6.38,2.278-6.38,5.696c0,54.911,0,109.823,0,164.734c0,3.646,2.051,5.24,6.835,5.924
		c28.025,3.874,56.051,7.747,83.848,11.62c60.38,8.431,120.532,16.634,180.912,25.063c26.658,3.646,53.316,7.291,79.975,10.937
		c5.469,0.684,7.519-0.683,7.519-5.695c0-18.912,0-38.051,0-56.963c0-24.379,0-48.759,0-72.911c0-42.835,0-85.898,0-128.734
		C376.86,203.582,375.722,202.671,366.607,204.038z M36.912,412.063c-4.557-0.456-5.013-2.507-5.013-5.013
		c0-15.494,0-30.987,0-46.481c0-29.621,0-59.241-0.228-89.089c0-3.874,2.051-5.468,7.063-5.468c5.24,0,4.329,2.734,4.329,5.013
		c0,22.557,0,45.342,0,67.898l0,0c0,23.013,0,45.798,0,68.811C43.291,411.607,41.924,412.519,36.912,412.063z M66.304,415.253
		c-6.38,0-8.43-1.367-8.658-5.924c0-4.329,0-8.431,0-12.76c0-42.607,0-85.215,0-127.822c0-4.785,1.367-5.696,7.519-5.696
		c6.38-0.228,5.241,2.962,5.241,5.696c0,23.468,0,46.937,0,70.405l0,0c0,23.468,0,46.937,0,70.405
		C70.405,412.063,72.228,415.253,66.304,415.253z M100.025,339.152c0,8.203,0,16.633,0,24.835c0,16.633,0,33.266,0,49.898
		c0,2.051,0.228,4.102-3.646,4.329c-6.38,0.684-9.342-1.139-9.342-5.924c0-48.987,0-97.975,0-146.962
		c0-5.24,1.595-5.013,9.342-5.468c5.468-0.456,4.329,3.646,4.329,5.696C100.709,290.393,100.025,314.544,100.025,339.152z
		 M132.152,339.152c0,4.785,0,9.57,0,14.354c0,21.417,0,42.835-0.228,64.253c0,1.595-1.595,4.101-3.189,4.557
		c-5.696,1.367-11.393-2.278-11.393-6.607c0-51.266,0-102.532,0-153.798c0-4.557,1.595-5.24,10.025-5.468
		c5.924-0.228,4.557,2.734,4.557,5.241C132.152,287.43,132.152,313.177,132.152,339.152z M168.152,421.405
		c0,1.367-0.684,3.646-2.051,4.329c-5.468,2.278-14.126-1.823-14.126-6.38c0-52.861,0-105.722,0-158.583
		c0-7.063-0.456-7.063,8.886-8.203c7.063-0.683,7.519-0.911,7.519,4.102c0,27.342,0,54.684,0,81.797c0,2.506,0,5.013,0,7.519
		C168.38,371.278,168.38,396.342,168.152,421.405z M206.203,425.506c0,1.596-1.367,4.33-2.962,4.558
		c-7.519,1.822-14.127-1.823-14.127-7.747c0-55.139,0-110.278,0-165.417c0-7.063-0.684-7.519,9.57-8.431
		c7.519-0.684,7.747-0.911,7.747,4.557c0,28.709,0,57.417,0,86.126l0,0c0,6.152,0,12.304,0,18.456
		C206.203,380.165,206.43,402.722,206.203,425.506z M249.038,430.291c0,1.367-1.367,4.102-2.051,4.102
		c-5.24,0-10.709-0.229-15.722-1.367c-1.367-0.228-1.823-3.873-1.823-6.152c0-57.873,0-114.151,0-172.025
		c0-9.114-2.962-10.481,11.848-11.62c7.747-0.684,7.747-0.684,7.747,4.785c0,30.076,0,60.152,0,90.228c0,5.24,0,10.481,0,15.721
		C249.038,379.709,249.266,405,249.038,430.291z M295.975,431.431c0,9.797,0,9.569-13.443,7.975
		c-6.38-0.684-7.975-2.734-7.975-7.291c0.228-60.836,0-121.899,0.228-182.734c0-11.393-1.823-9.342,12.532-11.165
		c8.658-1.139,8.658-1.139,8.658,5.24c0,31.671,0,63.342,0,95.013C295.975,369.684,295.975,400.443,295.975,431.431z
		 M334.253,444.873c-9.113-0.911-9.113-0.911-9.113-7.291c0-63.569,0-127.139,0-190.708c0-12.532,0-12.532,17.088-14.126
		c5.013-0.456,6.38,0.228,6.38,4.101c-0.228,33.949,0,68.126,0,102.076c0,32.127,0,64.481,0,96.607
		C348.607,446.696,351.342,446.696,334.253,444.873z"/>
	<path d="M393.038,467.202c0,7.747,0.456,8.203,11.164,7.063c26.431-2.962,52.861-6.151,79.292-9.113
		c4.784-0.456,6.607-2.279,6.607-5.696c0-80.203,0-160.405,0-240.608c0-3.646-1.367-5.241-6.607-5.696
		c-27.57-2.962-55.14-6.38-82.709-9.797c-5.925-0.684-7.52,0.456-7.52,5.468c0,43.291,0,86.583,0,130.101
		C393.038,381.759,393.038,424.367,393.038,467.202z M449.089,332.089c4.329,0,8.886,0,13.215,0l0,0c4.785,0,9.569,0,14.354,0
		c4.557,0.228,6.607,2.278,6.836,5.24c0.228,3.19-1.367,5.924-6.152,6.152c-9.798,0.228-19.595,0.456-29.393,0
		c-4.557-0.228-7.063-2.734-6.835-6.152C441.569,333.911,444.304,332.316,449.089,332.089z"/>
	<polygon points="577.14,403.633 567.569,404.772 567.569,429.38 577.14,428.24 	"/>
	<path d="M512.886,460.823c10.709-1.14,21.19-2.507,31.899-3.646c16.404-1.822,32.582-3.873,48.987-5.695
		c5.468-0.684,7.975-2.279,7.975-6.38c-0.229-70.861,0-141.494,0-212.354c0-3.646-1.823-5.696-7.063-6.38
		c-27.798-3.19-55.367-6.38-83.165-9.57c-6.151-0.684-7.519,0.228-7.519,5.468c0,38.734,0,77.696,0,116.431l0,0
		c0,37.823,0,75.646,0,113.468c0,0.912,0,2.051,0,2.963C504.228,460.595,505.595,461.506,512.886,460.823z M552.304,412.291
		l-10.025,1.14v-6.152l-9.342,0.911v25.52l9.342-1.14v-6.151l10.025-1.14v7.975c0,1.595-0.684,2.962-2.278,4.102
		c-1.367,1.14-3.189,2.051-5.24,2.278l-14.583,1.823c-2.05,0.228-3.646,0-5.24-0.912c-1.367-0.911-2.278-2.05-2.278-3.646v-29.393
		c0-1.595,0.684-2.962,2.278-4.101c1.367-1.14,3.19-1.823,5.24-2.051l14.583-1.595c2.05-0.229,3.646,0.228,5.24,1.139
		c1.367,0.912,2.278,2.051,2.278,3.646V412.291z M565.063,397.709l14.582-1.595c2.051-0.228,3.646,0.228,5.24,0.911
		c1.367,0.911,2.278,2.051,2.278,3.646v28.253c0,1.367-0.683,2.734-2.278,4.102c-1.367,1.139-3.189,2.051-5.24,2.278l-14.582,1.823
		c-2.051,0.228-3.646,0-5.241-0.912c-1.366-0.911-2.278-2.051-2.278-3.646V403.86c0-1.595,0.684-2.962,2.278-4.101
		C561.189,398.62,563.013,397.937,565.063,397.709z M525.189,332.089c8.658,0,17.316,0,25.975,0c5.013,0,7.976,1.822,8.203,5.468
		c0.228,3.646-2.734,5.924-7.975,6.152c-4.102,0.228-8.431,0-12.76,0l0,0c-4.557,0-9.342,0.228-13.898,0
		c-4.785-0.228-7.975-2.279-7.747-5.924C516.987,334.139,519.949,332.089,525.189,332.089z"/>
	<path d="M56.506,453.76l-32.81-4.558c-4.557-0.684-8.431,0.684-11.62,3.874c-3.19,3.189-5.013,7.519-5.013,12.759v28.709
		c0,10.709,3.189,19.367,9.797,26.203c6.152,6.38,13.898,9.797,23.013,10.253c7.063,0.456,10.481,3.418,10.481,9.114v20.962
		l-21.19-0.456v-20.734l-22.329-1.139v28.025c0,5.24,1.595,9.797,5.013,13.442c3.19,3.646,7.063,5.469,11.62,5.469h32.81
		c4.557,0,8.431-1.823,11.621-5.24c3.189-3.418,5.013-7.747,5.013-12.532v-26.886c0-10.025-3.19-18.228-9.798-24.607
		c-6.152-6.152-13.898-9.798-23.013-10.481c-7.063-0.456-10.481-3.873-10.481-9.569v-21.418l21.19,2.278v20.278l22.329,2.051
		v-26.202c0-5.013-1.595-9.342-5.013-13.216C64.709,456.722,60.835,454.443,56.506,453.76z"/>
	<polygon points="80.43,481.102 102.304,483.38 102.304,586.14 124.633,586.14 124.633,485.886 146.278,488.393 146.278,466.063 
		80.43,457.177 	"/>
	<polygon points="153.57,586.14 213.266,586.14 213.266,565.633 176.126,564.722 176.126,538.975 207.114,540.569 207.114,519.836 
		176.126,517.329 176.126,491.582 213.266,495.684 213.266,475.177 153.57,467.202 	"/>
	<polygon points="224.658,586.14 284.354,586.14 284.354,567.456 246.987,566.544 246.987,542.848 277.975,544.671 277.975,525.76 
		246.987,523.253 246.987,499.557 284.354,503.658 284.354,484.975 224.658,476.772 	"/>
	<polygon points="318.076,489.531 295.747,486.342 295.747,586.14 349.063,586.14 349.063,569.051 318.076,568.367 	"/>
	<path d="M443.848,537.38c4.558-3.874,6.836-8.658,6.836-14.354v-19.595c0-3.646-1.595-6.38-4.557-8.658
		c-2.963-2.279-6.608-2.962-10.709-2.734l-42.836,4.329V585h30.304c8.431,0,15.494-2.051,21.19-6.152
		c5.924-4.329,9.113-10.253,9.113-17.544v-8.886C452.962,545.811,450,540.798,443.848,537.38z M412.86,511.177l16.861-1.366v14.582
		c0,1.595-0.684,3.189-2.278,4.329c-1.367,1.139-3.19,1.822-5.241,2.051l-9.569,0.455v-20.051H412.86z M432.456,561.987
		c0,4.102-3.19,6.152-9.798,6.152l-9.798,0.228v-20.278l12.076-0.456c2.051,0,3.646,0.456,5.24,1.595
		c1.367,1.14,2.279,2.507,2.279,4.102V561.987z"/>
	<path d="M522,487.481c-2.962-2.279-6.607-3.418-10.709-2.963l-30.304,2.963c-4.102,0.455-7.747,2.05-10.709,4.784
		c-2.962,2.962-4.557,6.152-4.557,9.798v69.949c0,3.646,1.595,6.835,4.557,9.342c2.962,2.506,6.607,3.873,10.709,3.873h30.304
		c4.102,0,7.747-1.367,10.709-4.101c2.962-2.734,4.557-6.152,4.557-10.025v-74.278C526.557,492.949,525.189,489.987,522,487.481z
		 M506.051,566.544L486.684,567v-61.747l19.367-1.595V566.544z"/>
	<path d="M579.418,477.684c-2.962,10.025-6.38,24.835-10.937,44.431c-4.329-18.912-7.976-32.811-10.938-42.152l-20.962,2.051
		l15.722,50.811l-15.722,52.404h20.962c2.962-9.797,6.38-24.151,10.938-43.291c4.329,18.911,7.975,33.494,10.937,43.291h20.962
		l-15.494-54l15.494-55.595L579.418,477.684z"/>
</g>
</svg>
